HIERARCHY
ROOT Hips
{
 OFFSET 0.000000 0.000000 0.000000
 CHANNELS 6 Xposition Yposition Zposition Yrotation Xrotation Zrotation
 JOINT Chest
 {
  OFFSET 0.000000 9.585900 0.002600
  CHANNELS 3 Yrotation Xrotation Zrotation
  JOINT Chest2
  {
   OFFSET 0.000000 9.601200 -0.005300
   CHANNELS 3 Yrotation Xrotation Zrotation
   JOINT Chest3
   {
    OFFSET 0.000000 9.561800 0.000000
    CHANNELS 3 Yrotation Xrotation Zrotation
    JOINT Chest4
    {
     OFFSET 0.000000 9.552100 0.000000
     CHANNELS 3 Yrotation Xrotation Zrotation
     JOINT Neck
     {
      OFFSET 0.000000 14.453000 0.000000
      CHANNELS 3 Yrotation Xrotation Zrotation
      JOINT Head
      {
       OFFSET 0.000000 8.936500 -0.011300
       CHANNELS 3 Yrotation Xrotation Zrotation
       End Site
       {
        OFFSET 0.000000 17.073600 -0.006000
       }
      }
     }
     JOINT RightCollar
     {
      OFFSET -2.921100 9.558500 0.000000
      CHANNELS 3 Yrotation Xrotation Zrotation
      JOINT RightShoulder
      {
       OFFSET -13.519700 0.000000 0.000000
       CHANNELS 3 Yrotation Xrotation Zrotation
       JOINT RightElbow
       {
        OFFSET 0.000000 -29.696600 0.000000
        CHANNELS 3 Yrotation Xrotation Zrotation
        JOINT RightWrist
        {
         OFFSET 0.000000 -24.004700 0.000000
         CHANNELS 3 Yrotation Xrotation Zrotation
         End Site
         {
          OFFSET 0.000000 -17.728500 0.000000
         }
        }
       }
      }
     }
     JOINT LeftCollar
     {
      OFFSET 2.921100 9.558500 0.000000
      CHANNELS 3 Yrotation Xrotation Zrotation
      JOINT LeftShoulder
      {
       OFFSET 13.519700 0.000000 0.000000
       CHANNELS 3 Yrotation Xrotation Zrotation
       JOINT LeftElbow
       {
        OFFSET 0.000000 -29.696600 0.000000
        CHANNELS 3 Yrotation Xrotation Zrotation
        JOINT LeftWrist
        {
         OFFSET 0.000000 -24.004700 0.000000
         CHANNELS 3 Yrotation Xrotation Zrotation
         End Site
         {
          OFFSET 0.000000 -17.728500 0.000000
         }
        }
       }
      }
     }
    }
   }
  }
 }
 JOINT RightHip
 {
  OFFSET -7.771700 -0.012900 -0.001300
  CHANNELS 3 Yrotation Xrotation Zrotation
  JOINT RightKnee
  {
   OFFSET 0.000000 -40.869800 0.001200
   CHANNELS 3 Yrotation Xrotation Zrotation
   JOINT RightAnkle
   {
    OFFSET 0.000000 -39.717900 0.002100
    CHANNELS 3 Yrotation Xrotation Zrotation
    JOINT RightToe
    {
     OFFSET 0.000000 -4.965400 11.033500
     CHANNELS 3 Yrotation Xrotation Zrotation
     End Site
     {
      OFFSET 0.000000 -1.423100 5.872300
     }
    }
   }
  }
 }
 JOINT LeftHip
 {
  OFFSET 7.771700 -0.012900 -0.001300
  CHANNELS 3 Yrotation Xrotation Zrotation
  JOINT LeftKnee
  {
   OFFSET 0.000000 -40.869800 0.001200
   CHANNELS 3 Yrotation Xrotation Zrotation
   JOINT LeftAnkle
   {
    OFFSET 0.000000 -39.717900 0.002100
    CHANNELS 3 Yrotation Xrotation Zrotation
    JOINT LeftToe
    {
     OFFSET 0.000000 -4.965400 11.033500
     CHANNELS 3 Yrotation Xrotation Zrotation
     End Site
     {
      OFFSET 0.000000 -1.423100 5.872300
     }
    }
   }
  }
 }
}
MOTION
Frames: 8
Frame Time: 0.008333
-79.891202 47.226184 21.074631 -164.568190 -29.762603 -0.627162 -2.069268 13.873886 2.573916 -1.103455 7.924347 2.129372 -1.340081 9.919954 2.648440 -1.089753 7.930137 2.132780 -10.362360 22.857574 -0.929449 -18.430603 7.078846 0.991018 8.902338 0.868330 -7.640961 12.795140 -27.424079 -32.475589 -174.629443 -70.793014 -161.413902 10.761541 -0.672372 -17.272141 -1.571387 2.050346 -2.906948 3.748394 -23.203332 -2.296410 -69.851976 -47.839861 40.324799 -6.873769 2.561692 39.004276 33.662728 -38.821192 -45.945029 -118.214991 66.533937 -112.536544 0.175273 -2.915345 4.575262 -0.618150 -1.216260 -0.094459 3.587271 -57.361940 -2.191829 38.398186 83.692390 28.178413 -11.680960 9.285963 -6.521464 0.566373 0.465979 0.256963
-79.889520 47.220829 21.076392 -164.614581 -29.799540 -0.665975 -2.047551 13.909580 2.623144 -1.182668 7.940146 2.112514 -1.339957 9.939014 2.644467 -1.106846 7.946461 2.129846 -10.397417 22.852312 -0.980283 -18.480843 7.065135 0.909342 8.982068 0.874927 -7.689089 13.196990 -27.745198 -32.761528 -174.020894 -70.796837 -161.887158 10.712227 -0.700543 -17.288206 -1.517735 2.040770 -2.911059 3.779211 -23.208521 -2.294126 -69.887726 -47.818863 40.381407 -6.831846 2.567760 39.019577 33.669375 -38.826753 -45.832136 -118.189972 66.512150 -112.517082 0.132018 -2.896811 4.554498 -0.587203 -1.212395 -0.101884 3.534393 -57.324019 -2.084283 38.633577 83.689077 28.410852 -11.686668 9.216366 -6.452593 0.563209 0.510747 0.204961
-79.891153 47.217972 21.075401 -164.689135 -29.861819 -0.686770 -2.043125 13.971837 2.646546 -1.200637 7.950674 2.104507 -1.358260 9.958448 2.639958 -1.121410 7.961984 2.126520 -10.432573 22.852612 -1.029380 -18.531378 7.061979 0.830185 9.062141 0.881988 -7.726912 13.653060 -28.069897 -33.089319 -173.463314 -70.809727 -162.334286 10.666345 -0.751783 -17.266354 -1.475889 2.032433 -2.909793 3.804421 -23.210408 -2.296648 -69.903086 -47.790603 40.432650 -6.833968 2.587342 39.020760 33.688936 -38.810933 -45.704988 -118.158157 66.490273 -112.493514 0.093515 -2.875751 4.509938 -0.558278 -1.208812 -0.122318 3.557335 -57.245543 -2.028794 39.104106 83.671484 28.898127 -11.694215 9.095481 -6.351276 0.556230 0.576049 0.152279
-79.897887 47.210894 21.084459 -164.795446 -29.868526 -0.657671 -2.024072 13.971891 2.630392 -1.190668 7.962930 2.106365 -1.343358 9.968706 2.641143 -1.185840 7.982695 2.122480 -10.470063 22.854863 -1.076477 -18.586448 7.062936 0.754864 9.141787 0.887225 -7.758069 14.156218 -28.385439 -33.452712 -173.013535 -70.818452 -162.710100 10.625285 -0.827860 -17.225191 -1.445516 2.026970 -2.906394 3.819034 -23.215377 -2.302202 -69.873694 -47.771785 40.473157 -6.888071 2.620634 38.993924 33.780177 -38.826244 -45.651236 -118.034899 66.507363 -112.413485 0.089035 -2.802565 4.473465 -0.588797 -1.218070 -0.059963 3.621741 -57.229824 -2.003545 39.324835 83.668175 29.110467 -11.697628 9.018554 -6.249427 0.579894 0.589711 0.115675
-79.902942 47.206279 21.090073 -164.873659 -29.897869 -0.668172 -2.075147 13.982899 2.602901 -1.081000 7.989198 2.145388 -1.375028 9.977728 2.635807 -1.241078 8.002373 2.114042 -10.509781 22.855473 -1.120510 -18.646494 7.061536 0.685712 9.216206 0.888971 -7.784603 14.698787 -28.686831 -33.843315 -172.719036 -70.812694 -162.972280 10.583608 -0.926298 -17.182983 -1.429667 2.025996 -2.899251 3.823122 -23.228054 -2.306899 -69.829345 -47.745761 40.511674 -6.883431 2.627095 38.991314 33.813045 -38.835483 -45.563059 -117.963400 66.507041 -112.357945 0.064485 -2.763572 4.447681 -0.571896 -1.220026 -0.066376 3.657649 -57.187552 -1.970303 39.410848 83.668267 29.217710 -11.677446 8.913810 -6.134706 0.584356 0.629146 0.067840
-79.913819 47.202661 21.096829 -164.949862 -29.933537 -0.652876 -2.090704 14.003406 2.566176 -1.075484 8.008285 2.152648 -1.456666 10.008235 2.612227 -1.176043 8.010297 2.115812 -10.549593 22.852153 -1.161051 -18.707881 7.053439 0.623344 9.286935 0.887010 -7.809045 15.271782 -28.978171 -34.256319 -172.577427 -70.790930 -163.115527 10.540992 -1.039957 -17.149338 -1.400131 2.019973 -2.890894 3.794789 -23.242402 -2.302321 -69.770710 -47.720555 40.533476 -6.873538 2.625344 38.971549 33.855547 -38.826917 -45.499770 -117.896008 66.506290 -112.304878 0.015243 -2.730089 4.413257 -0.528525 -1.216713 -0.093923 3.758350 -57.122597 -2.046901 39.489142 83.642683 29.356789 -11.621601 8.769437 -6.019003 0.567725 0.700666 0.012650
-79.920477 47.199828 21.102707 -165.023986 -29.971712 -0.669949 -2.047478 14.036740 2.596281 -1.177210 8.016315 2.108645 -1.429932 10.035873 2.619110 -1.161603 8.024294 2.115389 -10.587252 22.843046 -1.197327 -18.766797 7.034953 0.568744 9.360809 0.880424 -7.834118 15.862473 -29.264033 -34.689897 -172.538277 -70.754791 -163.177639 10.507564 -1.156645 -17.125617 -1.322316 1.999061 -2.886340 3.712570 -23.252927 -2.284803 -69.700141 -47.702687 40.535008 -6.849792 2.613784 38.951551 33.871485 -38.834271 -45.403254 -117.831839 66.504257 -112.249279 -0.020628 -2.694026 4.380010 -0.496394 -1.221614 -0.068918 3.747652 -57.070600 -2.002905 39.457912 83.645728 29.351426 -11.561053 8.645676 -5.896323 0.554821 0.743364 -0.036817
-79.928360 47.197710 21.109221 -165.102018 -30.011871 -0.679051 -2.056687 14.064634 2.584628 -1.186898 8.038489 2.103642 -1.418167 10.059025 2.619399 -1.169295 8.042288 2.111102 -10.621915 22.826166 -1.228077 -18.822102 7.002514 0.524345 9.449961 0.857276 -7.847264 16.451005 -29.530293 -35.148963 -172.557793 -70.700675 -163.193489 10.488369 -1.258539 -17.110439 -1.391500 2.028717 -2.869534 3.787730 -23.333843 -2.285639 -69.615003 -47.707402 40.516918 -6.826601 2.604219 38.933456 33.890805 -38.831015 -45.322116 -117.765389 66.509627 -112.180977 -0.044341 -2.662846 4.343468 -0.470014 -1.220560 -0.074056 3.727826 -57.015437 -1.958917 39.415754 83.648568 29.330998 -11.499540 8.518191 -5.777130 0.543994 0.781929 -0.079910
